{
  "accessors": [
    {
      "bufferView": 1,
      "componentType": 5126,
      "count": 61647,
      "max": [
        2.632509231567383,
        5.351330280303955,
        0.9743536114692688
      ],
      "min": [
        -2.6164934635162354,
        -5.377193450927734,
        -0.7852698564529419
      ],
      "type": "VEC3"
    },
    {
      "bufferView": 1,
      "byteOffset": 739764,
      "componentType": 5126,
      "count": 61647,
      "max": [
        0.9999932050704956,
        0.9993411302566528,
        0.9999774694442749
      ],
      "min": [
        -0.9999968409538269,
        -0.9999759793281555,
        -0.9999698996543884
      ],
      "type": "VEC3"
    },
    {
      "bufferView": 0,
      "componentType": 5125,
      "count": 370002,
      "type": "SCALAR"
    }
  ],
  "asset": {
    "extras": {
      "author": "cgspektor (https://sketchfab.com/cgspektor)",
      "license": "CC-BY-4.0 (http://creativecommons.org/licenses/by/4.0/)",
      "source": "https://sketchfab.com/3d-models/body-male-b23a25ab66764946b760ee7f2bce6843",
      "title": "Body Male"
    },
    "generator": "Sketchfab-13.66.0",
    "version": "2.0"
  },
  "bufferViews": [
    {
      "buffer": 0,
      "byteLength": 1480008,
      "name": "floatBufferViews",
      "target": 34963
    },
    {
      "buffer": 0,
      "byteLength": 1479528,
      "byteOffset": 1480008,
      "byteStride": 12,
      "name": "floatBufferViews",
      "target": 34962
    }
  ],
  "buffers": [
    {
      "byteLength": 2959536,
      "uri": "scene.bin"
    }
  ],
  "materials": [
    {
      "doubleSided": true,
      "name": "body012_2",
      "pbrMetallicRoughness": {
        "baseColorFactor": [
          0.5,
          0.5,
          0.5,
          1.0
        ],
        "metallicFactor": 0.0
      }
    }
  ],
  "meshes": [
    {
      "name": "body012_2_body012_2_0",
      "primitives": [
        {
          "attributes": {
            "NORMAL": 1,
            "POSITION": 0
          },
          "indices": 2,
          "material": 0,
          "mode": 4
        }
      ]
    }
  ],
  "nodes": [
    {
      "children": [
        1
      ],
      "matrix": [
        1.0,
        0.0,
        0.0,
        0.0,
        0.0,
        2.220446049250313e-16,
        -1.0,
        0.0,
        0.0,
        1.0,
        2.220446049250313e-16,
        0.0,
        0.0,
        0.0,
        0.0,
        1.0
      ],
      "name": "Sketchfab_model"
    },
    {
      "children": [
        2
      ],
      "matrix": [
        0.009999999776482582,
        0.0,
        0.0,
        0.0,
        0.0,
        0.0,
        0.009999999776482582,
        0.0,
        0.0,
        -0.009999999776482582,
        0.0,
        0.0,
        0.0,
        0.0,
        0.0,
        1.0
      ],
      "name": "d1a529341e2746fcb4ff52d62b88febe.fbx"
    },
    {
      "children": [
        3
      ],
      "name": "RootNode"
    },
    {
      "children": [
        4
      ],
      "name": "body012_2"
    },
    {
      "mesh": 0,
      "name": "body012_2_body012_2_0"
    }
  ],
  "scene": 0,
  "scenes": [
    {
      "name": "Sketchfab_Scene",
      "nodes": [
        0
      ]
    }
  ]
}
